
<svg xmlns="http://www.w3.org/2000/svg"
     class="svg-snoweb svg-theme-dark"
     x="0"
     y="0"
     width="100%"
     height="100%"
     viewBox="0 0 100 100"
     preserveAspectRatio="xMidYMid meet"
>
<defs>
    <style>
        .svg-fill-primary {
            fill: #FFF;
        }

        .svg-fill-secondary {
            fill: #65CDAE;
        }

        .svg-fill-tertiary {
            fill: #37A987;
        }

        .svg-stroke-primary {
            stroke: #FFF;
        }

        .svg-stroke-secondary {
            stroke: #65CDAE;
        }

        .svg-stroke-tertiary {
            stroke: #37A987;
        }
    </style>
</defs>
    <path d="M22.8,22.8a3.9,3.9,0,0,1,3.9,3.9V73.3a3.9,3.9,0,1,1-7.8,0V26.7A3.9,3.9,0,0,1,22.8,22.8ZM52.7,35.6a3.8,3.8,0,0,1,0,5.5l-5,5H77.2a3.9,3.9,0,0,1,0,7.8H47.7l5,5a3.8,3.8,0,0,1,0,5.5,3.8,3.8,0,0,1-5.4,0L35.6,52.7a3.9,3.9,0,0,1,0-5.4L47.3,35.6A3.8,3.8,0,0,1,52.7,35.6Z"
          class="svg-fill-primary" fill-rule="evenodd"/>
</svg>